<svg width="16" height="16" viewBox="0 0 16 16" fill="none" xmlns="http://www.w3.org/2000/svg">
<g clip-path="url(#clip0_5015_1628)">
<rect x="1" y="1" width="14" height="14" rx="2" fill="black" fill-opacity="0.45"/>
<path d="M13.6895 9.64258C13.6895 9.96729 13.457 10.1997 13.1392 10.1997H11.208C10.7705 10.1997 10.5073 9.93994 10.5073 9.49561V6.22461C10.5073 5.75977 10.75 5.5 11.1807 5.5C11.6147 5.5 11.8574 5.76318 11.8574 6.22461V9.08887H13.1392C13.457 9.08887 13.6895 9.32129 13.6895 9.64258Z" fill="white"/>
<path d="M10.0391 9.64258C10.0391 9.96729 9.80664 10.1997 9.48877 10.1997H7.55762C7.12012 10.1997 6.85693 9.93994 6.85693 9.49561V6.22461C6.85693 5.75977 7.09961 5.5 7.53027 5.5C7.96436 5.5 8.20703 5.76318 8.20703 6.22461V9.08887H9.48877C9.80664 9.08887 10.0391 9.32129 10.0391 9.64258Z" fill="white"/>
<path d="M2.61865 10.2339C2.25635 10.2339 2 10.0083 2 9.68359C2 9.55371 2.0376 9.39648 2.1333 9.10596L3.01514 6.45703C3.24072 5.77002 3.56543 5.5 4.17383 5.5C4.77881 5.5 5.09668 5.7666 5.32568 6.45703L6.20068 9.10596C6.27588 9.34521 6.31348 9.50928 6.31348 9.64941C6.31348 10.0049 6.05713 10.2339 5.6709 10.2339C5.31543 10.2339 5.10693 10.0356 4.97705 9.57422L4.88477 9.2666H3.39111L3.29883 9.57422C3.16553 10.0493 2.97412 10.2339 2.61865 10.2339ZM3.65088 8.30957H4.62842L4.18066 6.67236H4.10889L3.65088 8.30957Z" fill="white"/>
</g>
<defs>
<clipPath id="clip0_5015_1628">
<rect width="16" height="16" fill="white"/>
</clipPath>
</defs>
</svg>
