<svg width="16" height="16" viewBox="0 0 16 16" fill="none" xmlns="http://www.w3.org/2000/svg">
<g clip-path="url(#clip0_5015_1637)">
<path d="M10.9259 3.39298C11.8634 3.93424 12.6434 4.71079 13.1888 5.64586C13.7342 6.58092 14.0261 7.64214 14.0358 8.72461C14.0454 9.80708 13.7724 10.8733 13.2437 11.8179C12.715 12.7626 11.9489 13.5529 11.0212 14.1107C10.0935 14.6686 9.0363 14.9747 7.95406 14.9988C6.87182 15.0229 5.80202 14.7641 4.85042 14.2481C3.89882 13.732 3.09836 12.9766 2.52816 12.0564C1.95796 11.1363 1.63777 10.0832 1.59922 9.00141L1.59534 8.77981L1.59922 8.55821C1.63748 7.48578 1.95252 6.44149 2.51373 5.52682C3.07495 4.61216 3.86324 3.85824 4.802 3.33834C5.74077 2.81844 6.79806 2.55024 7.87113 2.55982C8.9442 2.56939 9.99655 2.85641 10.9259 3.39298ZM7.8157 6.44718C7.60948 6.44718 7.41171 6.5291 7.26589 6.67492C7.12008 6.82073 7.03816 7.01851 7.03816 7.22472V8.00227H6.26061L6.16964 8.00771C5.97284 8.03112 5.79242 8.12879 5.66522 8.28076C5.53802 8.43273 5.47365 8.62754 5.48526 8.82538C5.49688 9.02322 5.5836 9.20916 5.72771 9.34521C5.87181 9.48125 6.06243 9.55714 6.26061 9.55736H7.03816V10.3349L7.0436 10.4259C7.06701 10.6227 7.16467 10.8031 7.31665 10.9303C7.46862 11.0575 7.66343 11.1219 7.86127 11.1103C8.05911 11.0986 8.24505 11.0119 8.3811 10.8678C8.51714 10.7237 8.59303 10.5331 8.59325 10.3349V9.55736H9.37079L9.46177 9.55192C9.65856 9.52851 9.83899 9.43084 9.96619 9.27887C10.0934 9.12689 10.1578 8.93209 10.1461 8.73425C10.1345 8.53641 10.0478 8.35047 9.9037 8.21442C9.75959 8.07837 9.56897 8.00249 9.37079 8.00227H8.59325V7.22472L8.5878 7.13375C8.56552 6.94461 8.4746 6.77023 8.33228 6.64367C8.18996 6.51712 8.00615 6.4472 7.8157 6.44718Z" fill="black" fill-opacity="0.45"/>
<path d="M3.46973 1.1533C3.62963 1.03455 3.82901 0.981699 4.02674 1.00564C4.22448 1.02958 4.40548 1.12849 4.53243 1.28196C4.65938 1.43544 4.72259 1.63178 4.70903 1.83049C4.69547 2.0292 4.60617 2.21513 4.45954 2.34994L4.38412 2.41214L2.24587 3.96723C2.08602 4.08784 1.8858 4.14213 1.68692 4.1188C1.48804 4.09546 1.30583 3.99629 1.17825 3.84194C1.05066 3.6876 0.987547 3.48999 1.00204 3.29027C1.01654 3.09055 1.10752 2.90412 1.25605 2.76981L1.33148 2.70761L3.46973 1.1533Z" fill="black" fill-opacity="0.45"/>
<path d="M11.074 1.32518C11.1854 1.17202 11.3488 1.06477 11.5336 1.02354C11.7184 0.982309 11.9119 1.00994 12.0778 1.10125L12.1603 1.15334L14.2985 2.70843C14.4584 2.82474 14.568 2.9976 14.605 3.19185C14.642 3.3861 14.6036 3.58715 14.4976 3.75407C14.3916 3.921 14.2259 4.04127 14.0344 4.09041C13.8429 4.13955 13.6398 4.11387 13.4665 4.0186L13.3841 3.9665L11.2459 2.41141C11.1633 2.35132 11.0934 2.27556 11.0401 2.18845C10.9868 2.10134 10.9513 2.00459 10.9354 1.90372C10.9195 1.80286 10.9236 1.69985 10.9475 1.60058C10.9715 1.50132 11.0139 1.40774 11.074 1.32518Z" fill="black" fill-opacity="0.45"/>
</g>
<defs>
<clipPath id="clip0_5015_1637">
<rect width="16" height="16" fill="white"/>
</clipPath>
</defs>
</svg>
