<svg width="16" height="16" viewBox="0 0 16 16" fill="none" xmlns="http://www.w3.org/2000/svg">
<path d="M14.789 7.89022L8.35305 1.45897C8.30671 1.41254 8.25167 1.3757 8.19108 1.35057C8.13048 1.32544 8.06553 1.3125 7.99993 1.3125C7.93433 1.3125 7.86937 1.32544 7.80878 1.35057C7.74818 1.3757 7.69314 1.41254 7.6468 1.45897L1.21086 7.89022C1.02336 8.07772 0.917114 8.33241 0.917114 8.59803C0.917114 9.1496 1.36555 9.59803 1.91711 9.59803H2.59524V14.1871C2.59524 14.4637 2.81868 14.6871 3.09524 14.6871H6.99993V11.1871H8.74993V14.6871H12.9046C13.1812 14.6871 13.4046 14.4637 13.4046 14.1871V9.59803H14.0827C14.3484 9.59803 14.6031 9.49335 14.7906 9.30428C15.1796 8.91366 15.1796 8.28085 14.789 7.89022Z" fill="black" fill-opacity="0.45"/>
</svg>
